<svg id="Component_11_1" data-name="Component 11 – 1" xmlns="http://www.w3.org/2000/svg" xmlns:xlink="http://www.w3.org/1999/xlink" width="412.104" height="619.778" viewBox="0 0 412.104 619.778">
  <defs>
    <linearGradient id="linear-gradient" x1="0.052" y1="-0.287" x2="1.203" y2="1.06" gradientUnits="objectBoundingBox">
      <stop offset="0" stop-color="#ed1941"/>
      <stop offset="1" stop-color="#ee931c"/>
    </linearGradient>
  </defs>
  <g id="Group_212" data-name="Group 212" transform="translate(2.511 550.802)">
    <path id="Path_150" data-name="Path 150" d="M13.677,462.543c.1,2.515.377,3.094,1.671,3.585a32.613,32.613,0,0,0,7.373.541c12.736,0,14.243-.377,14.243-3.358a2.868,2.868,0,0,0-1.834-2.93c-1.256-.377-1.256-.377-6.883-.44H18.274c-6.657,0-9.42-.377-11.756-1.572-2.6-1.358-3.768-4.226-3.768-9.169,0-6.5,1.846-9.269,7.046-10.527,2.927-.755,7.147-1.031,15.072-1.031,12.673,0,15.6.327,18.2,2.012s3.316,3.911,3.316,9.332H35.62c0-3.144-1.093-3.585-8.189-3.585-3.517,0-8.227.113-9.96.214-2.927.226-3.906.981-3.906,3.044a2.716,2.716,0,0,0,2.324,2.88,18.5,18.5,0,0,0,4.446.264H30.571c.98,0,5.853.164,7.7.277,6.883.327,9.583,3.358,9.583,10.628,0,6.678-1.947,9.609-7.26,10.741-2.7.6-8.064.931-15.926.931-12.56,0-15.273-.277-18.476-1.912-2.211-1.082-3.354-3.849-3.354-8.125v-1.8Z" transform="translate(-2.725 -437.64)" fill="#fff"/>
    <path id="Path_151" data-name="Path 151" d="M90.826,460.47c0,5.27-.214,7.056-.98,8.678-1.407,3.094-4.333,4.566-9.96,4.943-2.223.214-6.556.277-13.816.277-10.4,0-13.816-.491-16.692-2.39-3.567-2.276-4.6-6.075-4.6-16.816,0-9.559,1.08-12.967,4.873-15.093,3.253-1.9,6.72-2.39,16.843-2.39,13.49,0,16.416.277,19.506,1.8s4.283,4.666,4.283,9.974v1.207H79.823c-.214-3.962-1.03-4.276-10.563-4.276-8.993,0-10.613.214-11.97,1.409s-1.57,2.654-1.57,8.515c0,8.678.816,9.332,11.38,9.332,8.177,0,9.37-.063,10.89-.7s2.16-1.8,2.16-4.4Z" transform="translate(8.036 -437.63)" fill="#fff"/>
    <path id="Path_152" data-name="Path 152" d="M88.33,437.86h31.149c6.393,0,9.207.541,11.3,2.276s3.09,4.779,3.09,9.659c0,6.729-1.62,9.383-6.28,10.414,4.5.767,5.853,2.654,5.74,8.137v5.7H122.18v-4.5c-.063-3.911-1.143-4.716-6.067-4.616H99.22v9.118H88.33Zm28.11,18.224c5.313,0,6.343-.654,6.343-4.226,0-2.339-.214-3.308-.917-4.075s-1.733-1.031-5.024-1.031H99.22v9.332Z" transform="translate(19.185 -437.583)" fill="#fff"/>
    <path id="Path_153" data-name="Path 153" d="M142.375,437.868v17.9a26.559,26.559,0,0,0,.163,5.031c.54,4.062,2.324,4.88,10.563,4.88s10.513-.226,11.857-1.258c1.093-.818,1.633-2.39,1.683-5.157V437.83h11v19.08c.113,8.942-.653,11.609-3.843,14.476-2.6,2.012-5.853,2.88-10.563,2.93-1.683.063-2.663.063-4.823.063h-4.12c-10.186,0-12.183-.164-14.846-.868-6.556-2.012-8.29-5.421-8.126-16.162V437.868Z" transform="translate(30.189 -437.591)" fill="#fff"/>
    <path id="Path_154" data-name="Path 154" d="M175.483,437.86h17.434l13.176,24.073,13.1-24.035h17.346v36.185H225.811l.54-27.934-16.039,27.934H201.52l-15.763-27.934.327,27.934H175.47Z" transform="translate(41.494 -437.583)" fill="#fff"/>
    <path id="Path_155" data-name="Path 155" d="M231.58,437.86h17.434l13.238,24.073,13.1-24.035H292.7v36.185H281.971l.54-27.934-16.039,27.934H257.68l-15.763-27.934.327,27.934H231.63Z" transform="translate(55.859 -437.583)" fill="#fff"/>
    <path id="Path_156" data-name="Path 156" d="M305.986,461.518,285.35,437.86h14.03l12.183,14.967,12.083-14.967h13.816L317.09,461.518v12.577H306.037Z" transform="translate(69.625 -437.583)" fill="#fff"/>
    <path id="Path_157" data-name="Path 157" d="M9.349,483.836H2.73V481.22H19.058v2.616H12.539v11.32H9.349Z" transform="translate(-2.73 -426.408)" fill="#fff"/>
    <path id="Path_158" data-name="Path 158" d="M17.83,481.22h3.228v5.559H32.073V481.22h3.215v13.986H32.073v-5.823H21.058v5.823H17.83Z" transform="translate(1.136 -426.408)" fill="#fff"/>
    <path id="Path_159" data-name="Path 159" d="M34.73,481.22H49.576v2.453H37.908v3.32h11.1v2.2h-11.1v3.559H49.7v2.453H34.73Z" transform="translate(5.463 -426.408)" fill="#fff"/>
    <path id="Path_160" data-name="Path 160" d="M61.9,484.918l.578-3.7h2.072l-.578,3.7h2.512l-.276,1.861H63.7l-.414,2.666H65.8l-.3,1.887H63.01l-.628,3.874H60.246l.653-3.874H57.672l-.6,3.874H55.034l.628-3.874H53.15l.3-1.887h2.512l.414-2.666H53.866l.264-1.861h2.512l.59-3.7h2.01l-.6,3.7Zm-.716,4.528.414-2.666H58.4l-.414,2.666Z" transform="translate(10.178 -426.408)" fill="#fff"/>
    <path id="Path_161" data-name="Path 161" d="M67.64,485.433l5.866-4.213h3.956v13.986h-3.09V483.647l-5.212,3.911Z" transform="translate(13.888 -426.408)" fill="#fff"/>
    <path id="Path_162" data-name="Path 162" d="M89.162,490.818v.151c0,.906.176,1.383.565,1.61a8.569,8.569,0,0,0,3.642.428,31.223,31.223,0,0,0,4.346-.251c.791-.113,1.181-.252,1.432-.553a1.851,1.851,0,0,0,.427-1.195,1.287,1.287,0,0,0-1.256-1.421,21.908,21.908,0,0,0-4.421-.151h-2.01c-2.952,0-4.107-.252-4.873-.956a3.361,3.361,0,0,1-.992-2.7,4.658,4.658,0,0,1,1.055-3.421c.942-.88,3.077-1.258,7.674-1.258a20.52,20.52,0,0,1,5.288.4c1.733.5,2.336,1.446,2.336,3.61v.264h-3.14c0-.818-.226-1.258-.666-1.446a10.036,10.036,0,0,0-3.479-.44,15.692,15.692,0,0,0-5.112.49,1.359,1.359,0,0,0-.754,1.358,1.258,1.258,0,0,0,.59,1.258c.477.277,1.256.365,3.479.365h2.361c4.183,0,5.464.226,6.343,1.17a3.99,3.99,0,0,1,.867,2.918,4.167,4.167,0,0,1-1,3.144c-.929.88-2.726,1.17-7.436,1.17-5.024,0-6.594-.226-7.536-1.069a3.55,3.55,0,0,1-.9-2.767v-.717Z" transform="translate(18.579 -426.448)" fill="#fff"/>
    <path id="Path_163" data-name="Path 163" d="M119.055,490.206v.226c0,2-.214,2.981-.791,3.61-.967,1.069-2.286,1.321-6.833,1.321-5.564,0-6.594-.1-7.825-.78a3.358,3.358,0,0,1-1.545-2.289,21.813,21.813,0,0,1-.289-4.314c0-3.9.389-5.22,1.859-6.037,1.256-.679,2.638-.843,7.059-.843,4.836,0,6.443.277,7.323,1.258a5.3,5.3,0,0,1,.929,3.572h-3.065c0-2.037-.427-2.226-5.024-2.226-3.278,0-4.22.088-4.886.44s-.967,1.195-.967,4.213c0,4.062.339,4.377,4.7,4.377l4.27-.075c1.507-.151,2.035-.717,2.035-2.163v-.314Z" transform="translate(22.624 -426.439)" fill="#fff"/>
    <path id="Path_164" data-name="Path 164" d="M118.213,481.22h11.832c2.512,0,3.555.289,4.308,1.107a4.885,4.885,0,0,1,.9,3.358,4.734,4.734,0,0,1-.6,2.918,2.511,2.511,0,0,1-1.758.918c1.758.151,2.148.692,2.135,2.918v2.767h-3.266v-2.1c0-1.9-.477-2.276-2.587-2.264H121.4v4.364h-3.2Zm10.865,7.043c2.349,0,2.927-.415,2.927-2.088,0-1.937-.477-2.339-2.864-2.339h-7.725v4.427Z" transform="translate(26.832 -426.408)" fill="#fff"/>
    <path id="Path_165" data-name="Path 165" d="M151.743,481.233v8.8c0,2.666-.414,3.773-1.758,4.515s-2.386.818-7.335.818-6.28-.289-7.323-1.446c-.716-.818-.917-1.786-.917-4.364v-8.326h3.253v7.27a10.076,10.076,0,0,0,.113,2.453c.226,1.484,1.042,1.761,5.238,1.761a26.335,26.335,0,0,0,4.095-.214,1.71,1.71,0,0,0,1.382-1.585,12.592,12.592,0,0,0,0-2.2V481.17Z" transform="translate(30.982 -426.421)" fill="#fff"/>
    <path id="Path_166" data-name="Path 166" d="M151.11,481.22h5.024l6.582,10.527,6.556-10.527H174.2v13.986H171.03l.126-11.508-7.222,11.508h-2.512L154.237,483.7l.088,11.508h-3.14Z" transform="translate(35.258 -426.408)" fill="#fff"/>
    <path id="Path_167" data-name="Path 167" d="M176.61,481.225h10.915a10.375,10.375,0,0,1,3.2.277c1.733.516,2.349,1.7,2.349,4.5,0,2.138-.339,3.32-1.193,4.05s-1.809.88-3.982.88h-8.089v4.276h-3.2ZM187,488.331c2.248,0,2.826-.44,2.826-2.151,0-1.9-.515-2.352-2.675-2.352h-7.335v4.5Z" transform="translate(41.786 -426.414)" fill="#fff"/>
    <path id="Path_168" data-name="Path 168" d="M209.5,482.484a4.834,4.834,0,0,1,1.03,2.956c.063.654.088,1.409.088,2.968,0,3.5-.339,4.842-1.407,5.786a5.671,5.671,0,0,1-3.58,1.107c-.678,0-3.2.088-5.15.088-4.27,0-5.426-.126-6.619-.78a3.585,3.585,0,0,1-1.721-2.855,26.925,26.925,0,0,1-.163-3.962c0-3.27.314-4.565,1.319-5.446a5.6,5.6,0,0,1,3.542-1.132c.7-.063,2.8-.113,5.351-.113C207.143,481.1,208.462,481.352,209.5,482.484Zm-14.231,5.773c0,2.729.2,3.61.98,4s1.444.491,5.439.491c3.6,0,4.509-.151,5.024-.78s.628-1.421.628-3.773c0-4.377,0-4.427-6.079-4.427s-5.991.05-5.991,4.49Z" transform="translate(45.718 -426.439)" fill="#fff"/>
    <path id="Path_169" data-name="Path 169" d="M209.53,481.22h3.228V486.8h2.386l7.122-5.584H226.9l-8.88,6.88,9.571,7.106H222.68l-7.662-5.823h-2.261v5.823H209.53Z" transform="translate(50.214 -426.408)" fill="#fff"/>
    <path id="Path_170" data-name="Path 170" d="M225.76,481.22h14.846v2.453H228.938v3.32h11.1v2.2h-11.1v3.559h11.794v2.453H225.76Z" transform="translate(54.369 -426.408)" fill="#fff"/>
    <path id="Path_171" data-name="Path 171" d="M240.19,481.22h11.832c2.449,0,3.555.289,4.308,1.107a4.885,4.885,0,0,1,.9,3.358,4.734,4.734,0,0,1-.6,2.918,2.511,2.511,0,0,1-1.758.918c1.758.151,2.148.692,2.135,2.918v2.767h-3.241v-2.1c0-1.9-.477-2.276-2.587-2.264h-7.775v4.364h-3.2Zm10.865,7.043c2.349,0,2.939-.415,2.939-2.088,0-1.937-.49-2.339-2.876-2.339h-7.725v4.427Z" transform="translate(58.064 -426.408)" fill="#fff"/>
    <path id="Path_172" data-name="Path 172" d="M278.417,487.754v1.484c0,2.515-.138,3.484-.641,4.4a3.216,3.216,0,0,1-2.2,1.5,33.1,33.1,0,0,1-6.154.226c-3.768,0-5.514-.126-6.368-.465a3.332,3.332,0,0,1-2.324-2.8,17.29,17.29,0,0,1-.239-3.71c0-3.685.239-4.867,1.13-5.848a4.029,4.029,0,0,1,2.512-1.157,49.65,49.65,0,0,1,6.9-.252c4.082,0,5.552.289,6.431,1.258a4.935,4.935,0,0,1,.892,3.32H275.2c0-.88-.126-1.258-.528-1.534s-1.256-.528-3.982-.528c-5.024,0-5.815.088-6.368.742s-.578,1.421-.578,3.61c0,2.717.163,3.66.754,4.163s1.394.654,5.187.654c4.145,0,4.584-.088,5.212-.981a3.539,3.539,0,0,0,.377-2h-6.217v-2.113Z" transform="translate(63.258 -426.44)" fill="#fff"/>
    <path id="Path_173" data-name="Path 173" d="M281.162,492.439l-1.545,2.767H276l8-13.986h4.371l7.875,13.986H292.73l-1.583-2.767Zm5.024-8.955-3.768,6.691h7.536Z" transform="translate(67.232 -426.408)" fill="#fff"/>
    <path id="Path_174" data-name="Path 174" d="M293.54,481.22h5.024l6.569,10.527,6.556-10.527h4.924v13.986h-3.165l.126-11.508-7.222,11.508h-2.512L296.63,483.7l.075,11.508h-3.14Z" transform="translate(71.722 -426.408)" fill="#fff"/>
    <path id="Path_175" data-name="Path 175" d="M314.88,481.22h14.846v2.453H318.058v3.32h11.1v2.2h-11.1v3.559h11.794v2.453H314.88Z" transform="translate(77.186 -426.408)" fill="#fff"/>
  </g>
  <g id="Group_221" data-name="Group 221">
    <g id="Rectangle_507" data-name="Rectangle 507" transform="translate(38.937 193.988)" fill="#fff" stroke="#707070" stroke-width="1">
      <rect width="217.291" height="235.194" stroke="none"/>
      <rect x="0.5" y="0.5" width="216.291" height="234.194" fill="none"/>
    </g>
    <path id="Path_176" data-name="Path 176" d="M357.746,59.122,144.6,1.267A37.16,37.16,0,0,0,99.007,27.478L98.58,29.05,296.013,55.462A43.507,43.507,0,0,1,333.329,104.4L284.345,470.964a36.882,36.882,0,0,0,2.273-6.175l97.3-360.073a37.234,37.234,0,0,0-26.175-45.592Z" transform="translate(26.899 0.036)" fill="url(#linear-gradient)"/>
    <path id="Path_177" data-name="Path 177" d="M308.231,55.2,109.969,28.635l-3.14-.428-3.14-.415L89.37,25.868A37.2,37.2,0,0,0,47.62,57.65H245.807a43.538,43.538,0,0,1,43.446,43.517V473.353a37.213,37.213,0,0,0,1.482-6.54l49.412-369.77A37.207,37.207,0,0,0,308.231,55.2Z" transform="translate(13.852 6.627)" fill="url(#linear-gradient)"/>
    <g id="Group_219" data-name="Group 219" transform="translate(0 70.566)">
      <path id="Path_178" data-name="Path 178" d="M258,56.07H37.178A37.2,37.2,0,0,0,0,93.3V466.377a37.2,37.2,0,0,0,37.178,37.229H258a36.911,36.911,0,0,0,24.681-9.408,37.29,37.29,0,0,0,9.5-13.105c.126-.3.251-.591.364-.893a30.639,30.639,0,0,0,1.093-3.182,31.482,31.482,0,0,0,.955-4.075,35.879,35.879,0,0,0,.578-6.5V93.3A37.191,37.191,0,0,0,258,56.07Zm-35.168,171.4v11.395l-13.176,15.306v-26.7a11.01,11.01,0,0,0-10.99-11.005H112l12.108-13.219h74.507a24.22,24.22,0,0,1,24.153,24.224ZM64.836,256.979V221.008a24.22,24.22,0,0,1,24.141-24.161h36.8l-12.1,13.219H88.976a11.01,11.01,0,0,0-10.99,11.005V249.03l-12.95,14.1ZM83.111,248v14.25A11.01,11.01,0,0,0,94.1,273.241H198.6a14.212,14.212,0,0,1,2.11.1l5.024.491-11.568,12.577H94.1a24.18,24.18,0,0,1-24.141-22.9V262.45ZM69.935,332.115V320.8a6.594,6.594,0,1,1,13.176,0v11.32A11.01,11.01,0,0,0,94.1,343.107h48.093l-12.1,13.206h-36a24.207,24.207,0,0,1-24.166-24.2Zm158.848,5.874a24.207,24.207,0,0,1-24.166,24.2H129.257l12.133-13.156h63.228a11.023,11.023,0,0,0,10.99-11.005V303.263a11.023,11.023,0,0,0-10.99-11.005h-11.3l12.108-13.206,1.256.1a24.337,24.337,0,0,1,22.093,24.111Z" transform="translate(0 -56.07)" fill="url(#linear-gradient)"/>
      <path id="Subtraction_40" data-name="Subtraction 40" d="M139.78,165.341H64.42l12.133-13.157H139.78a11.047,11.047,0,0,0,10.992-11V106.416A11.046,11.046,0,0,0,139.78,95.41h-11.3L140.584,82.2l1.257.1a24.334,24.334,0,0,1,22.093,24.111l.014,34.727a24.208,24.208,0,0,1-24.167,24.2Zm-74.518-5.874h-36A24.21,24.21,0,0,1,5.1,135.269V123.95a6.595,6.595,0,1,1,13.176,0v11.319a11.032,11.032,0,0,0,10.991,10.99H77.357L65.263,159.466Zm64.068-69.9H29.254a24.18,24.18,0,0,1-24.13-22.9V65.6l13.15-14.453V65.4A11.034,11.034,0,0,0,29.265,76.4h104.5a14.434,14.434,0,0,1,2.111.1l5.024.49L129.331,89.562ZM.2,66.282v0L0,60.131V24.16A24.221,24.221,0,0,1,24.14,0h36.8l-12.1,13.218H24.14A11.028,11.028,0,0,0,13.15,24.224V52.183L.2,66.28Zm144.619-8.955v-26.7a11.028,11.028,0,0,0-10.99-11.006H47.163L59.27,6.4h74.508a24.219,24.219,0,0,1,24.154,24.224h.063V42.02l-13.174,15.3Z" transform="translate(64.836 140.777)" fill="#fff"/>
    </g>
  </g>
</svg>
