<svg id="Group_222" data-name="Group 222" xmlns="http://www.w3.org/2000/svg" xmlns:xlink="http://www.w3.org/1999/xlink" width="412.104" height="518.102" viewBox="0 0 412.104 518.102">
  <defs>
    <linearGradient id="linear-gradient" x1="0.052" y1="-0.287" x2="1.203" y2="1.06" gradientUnits="objectBoundingBox">
      <stop offset="0" stop-color="#ed1941"/>
      <stop offset="1" stop-color="#ee931c"/>
    </linearGradient>
  </defs>
  <g id="Rectangle_507" data-name="Rectangle 507" transform="translate(38.937 193.988)" fill="#fff" stroke="#707070" stroke-width="1">
    <rect width="217.291" height="235.194" stroke="none"/>
    <rect x="0.5" y="0.5" width="216.291" height="234.194" fill="none"/>
  </g>
  <path id="Path_176" data-name="Path 176" d="M357.746,59.122,144.6,1.267A37.16,37.16,0,0,0,99.007,27.478L98.58,29.05,296.013,55.462A43.507,43.507,0,0,1,333.329,104.4L284.345,470.964a36.882,36.882,0,0,0,2.273-6.175l97.3-360.073a37.234,37.234,0,0,0-26.175-45.592Z" transform="translate(26.899 0.036)" fill="url(#linear-gradient)"/>
  <path id="Path_177" data-name="Path 177" d="M308.231,55.2,109.969,28.635l-3.14-.428-3.14-.415L89.37,25.868A37.2,37.2,0,0,0,47.62,57.65H245.807a43.538,43.538,0,0,1,43.446,43.517V473.353a37.213,37.213,0,0,0,1.482-6.54l49.412-369.77A37.207,37.207,0,0,0,308.231,55.2Z" transform="translate(13.852 6.627)" fill="url(#linear-gradient)"/>
  <g id="Group_219" data-name="Group 219" transform="translate(0 70.566)">
    <path id="Path_178" data-name="Path 178" d="M258,56.07H37.178A37.2,37.2,0,0,0,0,93.3V466.377a37.2,37.2,0,0,0,37.178,37.229H258a36.911,36.911,0,0,0,24.681-9.408,37.29,37.29,0,0,0,9.5-13.105c.126-.3.251-.591.364-.893a30.639,30.639,0,0,0,1.093-3.182,31.482,31.482,0,0,0,.955-4.075,35.879,35.879,0,0,0,.578-6.5V93.3A37.191,37.191,0,0,0,258,56.07Zm-35.168,171.4v11.395l-13.176,15.306v-26.7a11.01,11.01,0,0,0-10.99-11.005H112l12.108-13.219h74.507a24.22,24.22,0,0,1,24.153,24.224ZM64.836,256.979V221.008a24.22,24.22,0,0,1,24.141-24.161h36.8l-12.1,13.219H88.976a11.01,11.01,0,0,0-10.99,11.005V249.03l-12.95,14.1ZM83.111,248v14.25A11.01,11.01,0,0,0,94.1,273.241H198.6a14.212,14.212,0,0,1,2.11.1l5.024.491-11.568,12.577H94.1a24.18,24.18,0,0,1-24.141-22.9V262.45ZM69.935,332.115V320.8a6.594,6.594,0,1,1,13.176,0v11.32A11.01,11.01,0,0,0,94.1,343.107h48.093l-12.1,13.206h-36a24.207,24.207,0,0,1-24.166-24.2Zm158.848,5.874a24.207,24.207,0,0,1-24.166,24.2H129.257l12.133-13.156h63.228a11.023,11.023,0,0,0,10.99-11.005V303.263a11.023,11.023,0,0,0-10.99-11.005h-11.3l12.108-13.206,1.256.1a24.337,24.337,0,0,1,22.093,24.111Z" transform="translate(0 -56.07)" fill="url(#linear-gradient)"/>
    <path id="Subtraction_40" data-name="Subtraction 40" d="M139.78,165.341H64.42l12.133-13.157H139.78a11.047,11.047,0,0,0,10.992-11V106.416A11.046,11.046,0,0,0,139.78,95.41h-11.3L140.584,82.2l1.257.1a24.334,24.334,0,0,1,22.093,24.111l.014,34.727a24.208,24.208,0,0,1-24.167,24.2Zm-74.518-5.874h-36A24.21,24.21,0,0,1,5.1,135.269V123.95a6.595,6.595,0,1,1,13.176,0v11.319a11.032,11.032,0,0,0,10.991,10.99H77.357L65.263,159.466Zm64.068-69.9H29.254a24.18,24.18,0,0,1-24.13-22.9V65.6l13.15-14.453V65.4A11.034,11.034,0,0,0,29.265,76.4h104.5a14.434,14.434,0,0,1,2.111.1l5.024.49L129.331,89.562ZM.2,66.282v0L0,60.131V24.16A24.221,24.221,0,0,1,24.14,0h36.8l-12.1,13.218H24.14A11.028,11.028,0,0,0,13.15,24.224V52.183L.2,66.28Zm144.619-8.955v-26.7a11.028,11.028,0,0,0-10.99-11.006H47.163L59.27,6.4h74.508a24.219,24.219,0,0,1,24.154,24.224h.063V42.02l-13.174,15.3Z" transform="translate(64.836 140.777)" fill="#fff"/>
  </g>
</svg>
